<svg xmlns="http://www.w3.org/2000/svg" width="40" height="40" fill="none" viewBox="0 0 297.681 297.681"><g><g><path style="fill:#010002" d="M232.601,297.681H131.51l10.997-25.085c1.587-3.604,2.381-7.441,2.381-11.415 c0-15.764-12.823-28.587-28.587-28.587s-28.587,12.823-28.587,28.587c0,3.974,0.8,7.817,2.375,11.421l10.979,25.073H0.006V65.087 h92.427c0.179-0.263,0.28-0.549,0.28-0.776c0-0.036,0-0.072-0.006-0.107c-0.871-0.74-1.557-1.331-2.476-2.232 c-6.755-6.951-10.418-15.961-10.418-25.479C79.813,16.373,96.186,0,116.306,0S152.8,16.373,152.8,36.493 c0,9.529-3.664,18.539-10.317,25.371l-2.285,2.023c-0.084,0.197-0.113,0.34-0.113,0.412c0,0.263,0.101,0.531,0.268,0.776h92.248 v92.349c0.257,0.143,0.579,0.251,0.901,0.251c0.555-0.591,1.235-1.396,2.22-2.387c6.951-6.743,15.961-10.406,25.461-10.406 c20.12,0,36.493,16.373,36.493,36.493s-16.373,36.493-36.493,36.493c-9.511,0-18.521-3.664-25.383-10.329l-2.011-2.202 c-0.376-0.066-0.859,0.036-1.187,0.203C232.601,205.541,232.601,297.681,232.601,297.681z"/></g></g></svg>